<mxfile host="app.diagrams.net" modified="2023-12-09T07:49:27.648Z" agent="Mozilla/5.0 (Windows NT 10.0; Win64; x64) AppleWebKit/537.36 (KHTML, like Gecko) Chrome/119.0.0.0 Safari/537.36" etag="3MK3PhH8RAO8gVJ0OSXD" version="22.1.7" type="github">
  <diagram name="Page-1" id="NOjrvY7RWHfMtN8XokgD">
    <mxGraphModel dx="978" dy="529" grid="1" gridSize="10" guides="1" tooltips="1" connect="1" arrows="1" fold="1" page="1" pageScale="1" pageWidth="850" pageHeight="1100" math="0" shadow="0">
      <root>
        <mxCell id="0" />
        <mxCell id="1" parent="0" />
        <mxCell id="3S-87DPcV-2OU0zLq_Sf-1" value="" style="rounded=1;whiteSpace=wrap;html=1;" vertex="1" parent="1">
          <mxGeometry x="40" y="20" width="170" height="60" as="geometry" />
        </mxCell>
        <mxCell id="3S-87DPcV-2OU0zLq_Sf-2" value="&lt;b&gt;Youtube Database Design&lt;/b&gt;" style="text;strokeColor=none;align=left;fillColor=none;html=1;verticalAlign=middle;whiteSpace=wrap;rounded=0;" vertex="1" parent="1">
          <mxGeometry x="50" y="35" width="150" height="30" as="geometry" />
        </mxCell>
      </root>
    </mxGraphModel>
  </diagram>
</mxfile>
